<svg width="1784" height="541" viewBox="0 0 1784 541" fill="none" xmlns="http://www.w3.org/2000/svg">
<g clip-path="url(#clip0_6_2)">
<path d="M1775.52 251.33H1650.52V126.33H1584.16V251.33H1459.16V315.76H1584.16V440.76H1650.52V315.76H1775.52V251.33Z" fill="white"/>
<mask id="mask0_6_2" style="mask-type:luminance" maskUnits="userSpaceOnUse" x="-230" y="-165" width="2256" height="897">
<path d="M-229.35 -164.27H2025.52V731.35H-229.35V-164.27Z" fill="white"/>
</mask>
<g mask="url(#mask0_6_2)">
<path d="M1231.71 163.05C1263.93 163.05 1284.55 179.8 1284.55 207.51C1284.55 236.51 1263.93 257.12 1231.71 257.12H1180.17V163.05H1231.71ZM1272.3 322.84C1327.72 315.76 1373.47 268.07 1373.47 207.51C1373.47 128.9 1319.99 85.73 1233.65 85.73H1092.54V481.35H1180.17V324.78L1285.17 481.35H1387L1272.3 322.84ZM570.09 85.73H309.18V165.63H394.88V481.35H484.44V165.63H570.09V85.73ZM144.32 230.73C119.2 219.14 109.53 206.89 109.53 190.79C109.53 172.1 125.64 156.64 149.53 157.28C171.44 157.92 187.53 169.52 199.79 197.28L275.17 164.42C254.55 111.58 212.67 80.65 145 80.65C73.4799 80.65 20.6399 127.65 20.6399 190.84C20.6399 234.01 41.2599 269.44 94.0999 295.84L146.92 322.24C176.56 337.06 190.74 348.01 190.74 369.92C190.74 393.11 171.41 409.87 146.92 409.87C120.5 409.87 96.6599 395.05 85.7099 361.54L5.80994 384.74C23.8099 449.82 77.3299 487.83 146.92 487.83C222.31 487.83 280.3 439.51 280.3 369.92C280.3 316.44 251.95 280.36 194.6 253.92L144.32 230.73Z" fill="white"/>
</g>
<mask id="mask1_6_2" style="mask-type:luminance" maskUnits="userSpaceOnUse" x="537" y="20" width="527" height="501">
<path d="M739.86 208.18C739.533 209.184 738.896 210.059 738.041 210.678C737.185 211.298 736.156 211.631 735.1 211.63H537.92L697.66 327.69C698.464 328.272 699.423 328.603 700.414 328.638C701.406 328.674 702.386 328.413 703.23 327.89C747.42 300.43 786.05 281.38 868.23 259.89C868.23 259.89 742.23 354.3 659.65 460.08C657.84 462.39 656.449 465 655.54 467.79L638.35 520.7L797.87 404.8C798.724 404.179 799.754 403.844 800.81 403.844C801.866 403.844 802.895 404.179 803.75 404.8L963.27 520.7L902.32 333.12C901.993 332.116 901.992 331.035 902.317 330.031C902.642 329.027 903.277 328.152 904.13 327.53L1063.65 211.63H866.48C865.424 211.631 864.394 211.298 863.539 210.678C862.684 210.059 862.047 209.184 861.72 208.18L800.79 20.65L739.86 208.18Z" fill="white"/>
</mask>
<g mask="url(#mask1_6_2)">
<path d="M287.918 270.659L800.783 -242.206L1313.65 270.659L800.783 783.523L287.918 270.659Z" fill="url(#paint0_linear_6_2)"/>
</g>
</g>
<defs>
<linearGradient id="paint0_linear_6_2" x1="595.715" y1="477.181" x2="962.887" y2="110.008" gradientUnits="userSpaceOnUse">
<stop stop-color="#FA1660"/>
<stop offset="0.28" stop-color="#FA1660"/>
<stop offset="0.78" stop-color="#FF6E00"/>
<stop offset="1" stop-color="#FF6E00"/>
</linearGradient>
<clipPath id="clip0_6_2">
<rect width="1783.88" height="540.52" fill="white"/>
</clipPath>
</defs>
</svg>
