<svg width="38" height="38" viewBox="0 0 38 38" fill="none" xmlns="http://www.w3.org/2000/svg">
<path d="M30.8703 12.6493L19.0001 24.2203L7.12984 12.6493C6.91776 12.4421 6.63305 12.3261 6.33659 12.3261C6.04012 12.3261 5.75542 12.4421 5.54334 12.6493C5.44065 12.7499 5.35907 12.87 5.30337 13.0025C5.24768 13.135 5.21899 13.2774 5.21899 13.4211C5.21899 13.5649 5.24768 13.7072 5.30337 13.8398C5.35907 13.9723 5.44065 14.0924 5.54334 14.193L18.1712 26.505C18.393 26.7212 18.6904 26.8421 19.0001 26.8421C19.3098 26.8421 19.6072 26.7212 19.829 26.505L32.4568 14.1954C32.5603 14.0947 32.6425 13.9743 32.6986 13.8413C32.7547 13.7083 32.7836 13.5655 32.7836 13.4211C32.7836 13.2768 32.7547 13.1339 32.6986 13.0009C32.6425 12.868 32.5603 12.7476 32.4568 12.6469C32.2448 12.4397 31.9601 12.3238 31.6636 12.3238C31.3671 12.3238 31.0824 12.4397 30.8703 12.6469V12.6493Z" fill="#CACACA"/>
</svg>
