<svg width="48" height="48" viewBox="0 0 48 48" fill="none" xmlns="http://www.w3.org/2000/svg">
<path d="M38.994 15.978L24 30.594L9.00598 15.978C8.73809 15.7163 8.37847 15.5698 8.00398 15.5698C7.6295 15.5698 7.26988 15.7163 7.00198 15.978C6.87227 16.1051 6.76922 16.2568 6.69887 16.4242C6.62852 16.5916 6.59229 16.7714 6.59229 16.953C6.59229 17.1346 6.62852 17.3144 6.69887 17.4818C6.76922 17.6492 6.87227 17.8009 7.00198 17.928L22.953 33.48C23.2331 33.753 23.6088 33.9058 24 33.9058C24.3912 33.9058 24.7669 33.753 25.047 33.48L40.998 17.931C41.1286 17.8038 41.2324 17.6517 41.3033 17.4838C41.3742 17.3158 41.4108 17.1353 41.4108 16.953C41.4108 16.7707 41.3742 16.5902 41.3033 16.4222C41.2324 16.2542 41.1286 16.1022 40.998 15.975C40.7301 15.7133 40.3705 15.5668 39.996 15.5668C39.6215 15.5668 39.2619 15.7133 38.994 15.975V15.978Z" fill="#CACACA"/>
</svg>
